<?xml version="1.0" encoding="UTF-8"?>
<svg width="512px" height="512px" viewBox="0 0 512 512" version="1.1" xmlns="http://www.w3.org/2000/svg" xmlns:xlink="http://www.w3.org/1999/xlink">
    <title>tick_blue</title>
    <g id="Page-1" stroke="none" stroke-width="1" fill="none" fill-rule="evenodd">
        <g id="tick_blue" fill-rule="nonzero">
            <path d="M256,0 C114.835938,0 0,114.835938 0,256 C0,397.164062 114.835938,512 256,512 C397.164062,512 512,397.164062 512,256 C512,114.835938 397.164062,0 256,0 Z" id="Path" fill="#808F9B"></path>
            <path d="M385.75,201.75 L247.082031,340.414062 C242.921875,344.574219 237.460938,346.667969 232,346.667969 C226.539062,346.667969 221.078125,344.574219 216.917969,340.414062 L147.585938,271.082031 C139.242188,262.742188 139.242188,249.257812 147.585938,240.917969 C155.925781,232.574219 169.40625,232.574219 177.75,240.917969 L232,295.167969 L355.585938,171.585938 C363.925781,163.242188 377.40625,163.242188 385.75,171.585938 C394.089844,179.925781 394.089844,193.40625 385.75,201.75 Z" id="Path" fill="#FAFAFA"></path>
        </g>
    </g>
</svg>